<?xml version="1.0" encoding="UTF-8"?>
<!DOCTYPE svg PUBLIC "-//W3C//DTD SVG 1.1//EN" "http://www.w3.org/Graphics/SVG/1.1/DTD/svg11.dtd">
<svg xmlns="http://www.w3.org/2000/svg" version="1.1" width="186px" height="58px" style="shape-rendering:geometricPrecision; text-rendering:geometricPrecision; image-rendering:optimizeQuality; fill-rule:evenodd; clip-rule:evenodd" xmlns:xlink="http://www.w3.org/1999/xlink">
<g><path style="opacity:0.936" fill="#e438b9" d="M 15.5,12.5 C 15.31,16.0318 15.9767,19.3652 17.5,22.5C 12.7863,22.8266 8.11965,22.4933 3.5,21.5C 0.897544,18.636 0.897544,15.8027 3.5,13C 7.48617,12.5012 11.4862,12.3345 15.5,12.5 Z"/></g>
<g><path style="opacity:0.921" fill="#c23ede" d="M 15.5,12.5 C 19.5138,12.3345 23.5138,12.5012 27.5,13C 30.1667,16 30.1667,19 27.5,22C 24.1832,22.4983 20.8499,22.665 17.5,22.5C 15.9767,19.3652 15.31,16.0318 15.5,12.5 Z"/></g>
<g><path style="opacity:0.74" fill="#fefffe" d="M 35.5,24.5 C 40.959,25.4733 46.2923,26.1399 51.5,26.5C 50.8333,27.5 50.1667,28.5 49.5,29.5C 52.7305,37.5181 50.2305,42.5181 42,44.5C 35.9594,44.1291 33.1261,40.9624 33.5,35C 33.3757,32.41 34.0423,30.0767 35.5,28C 30.6138,27.3334 30.6138,26.1667 35.5,24.5 Z M 39.5,30.5 C 44.6589,30.1363 46.4922,32.4696 45,37.5C 43,40.1667 41,40.1667 39,37.5C 38.2967,35.0709 38.4634,32.7375 39.5,30.5 Z"/></g>
<g><path style="opacity:0.778" fill="#fefffe" d="M 7.5,25.5 C 13.6089,24.2041 17.6089,26.3708 19.5,32C 16.518,32.5672 13.6847,32.0672 11,30.5C 7.04371,32.6197 6.54371,35.453 9.5,39C 12.6169,37.822 15.9503,37.4886 19.5,38C 14.5513,45.8872 9.05132,46.3872 3,39.5C 1.30854,33.6102 2.80854,28.9436 7.5,25.5 Z"/></g>
<g><path style="opacity:0.824" fill="#fefffe" d="M 19.5,26.5 C 21.2646,25.5386 23.2646,25.2053 25.5,25.5C 25.5,30.1667 25.5,34.8333 25.5,39.5C 27.8333,39.5 30.1667,39.5 32.5,39.5C 32.5,40.8333 32.5,42.1667 32.5,43.5C 28.5,43.5 24.5,43.5 20.5,43.5C 20.8222,37.642 20.4889,31.9753 19.5,26.5 Z"/></g>
<g><path style="opacity:0.828" fill="#fefffe" d="M 52.5,25.5 C 54.1667,25.5 55.8333,25.5 57.5,25.5C 57.3343,29.8461 57.501,34.1794 58,38.5C 60.4541,40.013 62.1207,39.3463 63,36.5C 63.4986,32.8484 63.6653,29.1817 63.5,25.5C 64.8333,25.5 66.1667,25.5 67.5,25.5C 67.666,30.8437 67.4994,36.1771 67,41.5C 62.0573,45.6027 57.3907,45.2694 53,40.5C 52.5007,35.5111 52.3341,30.5111 52.5,25.5 Z"/></g>
<g><path style="opacity:0.817" fill="#fefffe" d="M 69.5,25.5 C 74.006,25.1482 78.3393,25.8148 82.5,27.5C 86.7397,32.9814 86.4063,38.1481 81.5,43C 77.5138,43.4988 73.5138,43.6655 69.5,43.5C 69.5,37.5 69.5,31.5 69.5,25.5 Z M 74.5,30.5 C 78.1757,29.9201 80.1757,31.4201 80.5,35C 80.099,38.5624 78.099,40.0624 74.5,39.5C 74.5,36.5 74.5,33.5 74.5,30.5 Z"/></g>
<g><path style="opacity:0.744" fill="#fdfefe" d="M 113.5,39.5 C 113.371,41.2161 113.038,42.8828 112.5,44.5C 108.6,43.5701 104.6,43.2367 100.5,43.5C 100.5,37.5 100.5,31.5 100.5,25.5C 102.467,25.2606 104.301,25.5939 106,26.5C 106.499,30.4862 106.666,34.4862 106.5,38.5C 109.059,38.1984 111.393,38.5318 113.5,39.5 Z"/></g>
<g><path style="opacity:0.938" fill="#44b4ff" d="M 133.5,36.5 C 134.73,38.2972 135.396,40.2972 135.5,42.5C 127.925,44.0651 120.259,44.7317 112.5,44.5C 113.038,42.8828 113.371,41.2161 113.5,39.5C 116.247,33.6704 119.247,28.0037 122.5,22.5C 126.953,26.6117 130.62,31.2783 133.5,36.5 Z"/></g>
<g><path style="opacity:0.789" fill="#fdfeff" d="M 135.5,42.5 C 135.396,40.2972 134.73,38.2972 133.5,36.5C 134.198,33.1027 134.865,29.6027 135.5,26C 137.167,25.3333 138.833,25.3333 140.5,26C 142,28.1667 143.5,30.3333 145,32.5C 145.497,30.1902 145.663,27.8568 145.5,25.5C 147.167,25.5 148.833,25.5 150.5,25.5C 150.5,31.5 150.5,37.5 150.5,43.5C 145.819,43.3298 142.652,40.9965 141,36.5C 140.503,38.8098 140.337,41.1432 140.5,43.5C 138.585,43.7845 136.919,43.4511 135.5,42.5 Z"/></g>
<g><path style="opacity:0.713" fill="#fefffe" d="M 154.5,25.5 C 157.85,25.335 161.183,25.5017 164.5,26C 169.906,27.9803 171.739,31.8136 170,37.5C 167.929,41.9534 164.429,43.9534 159.5,43.5C 157.571,43.4604 155.738,43.1271 154,42.5C 153.215,36.7507 153.382,31.084 154.5,25.5 Z M 160.5,30.5 C 163.917,32.4812 164.251,34.8146 161.5,37.5C 160.526,35.2573 160.192,32.924 160.5,30.5 Z"/></g>
</svg>
